<svg width="200" height="116" viewBox="0 0 200 116" fill="none" xmlns="http://www.w3.org/2000/svg">
<path d="M116.793 114.402H91.2237L148.921 1.54306H179.67L199.839 114.402H174.27L160.548 27.3331H159.666L116.793 114.402ZM122.635 70.0409H183.032L179.836 88.667H119.438L122.635 70.0409Z" fill="white"/>
<path d="M72.6804 34.3316C72.8641 29.7394 71.5231 26.1941 68.6576 23.696C65.8287 21.1978 61.5488 19.9487 55.8177 19.9487C51.9234 19.9487 48.5436 20.4998 45.678 21.6019C42.8124 22.6673 40.5163 24.1552 38.7896 26.0656C37.0997 27.9392 36.0527 30.1067 35.6485 32.5682C35.2444 34.5888 35.373 36.3522 36.0343 37.8584C36.7323 39.3647 37.8161 40.6689 39.2856 41.771C40.7918 42.8364 42.5736 43.7732 44.631 44.5815C46.6883 45.353 48.8742 46.0143 51.1887 46.5653L60.8875 48.99C65.6267 50.0922 69.8883 51.5617 73.6723 53.3986C77.493 55.2355 80.6892 57.4949 83.2609 60.1767C85.8693 62.8586 87.7062 66.0181 88.7716 69.6551C89.837 73.2922 89.9839 77.4619 89.2124 82.1644C88.0368 89.0711 85.2998 95.0594 81.0015 100.129C76.7032 105.162 71.0639 109.075 64.0837 111.867C57.1035 114.622 49.0211 116 39.8367 116C30.7257 116 23.0291 114.604 16.7469 111.812C10.4647 109.02 5.89082 104.887 3.02527 99.4128C0.196446 93.9021 -0.648527 87.0872 0.490349 78.9682H23.5801C23.176 82.7522 23.7271 85.9116 25.2333 88.4466C26.7763 90.9447 29.0725 92.8367 32.1217 94.1226C35.171 95.3717 38.7529 95.9962 42.8675 95.9962C46.9455 95.9962 50.5641 95.4084 53.7236 94.2328C56.9198 93.0572 59.5098 91.4223 61.4937 89.3283C63.4775 87.2342 64.6899 84.8279 65.1307 82.1093C65.5716 79.5743 65.1858 77.4435 63.9735 75.7169C62.7611 73.9902 60.814 72.5207 58.1322 71.3083C55.487 70.0592 52.199 68.9571 48.268 68.0019L36.4751 64.9159C27.3641 62.6014 20.4758 58.9827 15.8101 54.0599C11.1443 49.137 9.47277 42.5058 10.7953 34.1663C11.971 27.333 14.8181 21.3631 19.3369 16.2565C23.8924 11.1132 29.6235 7.12716 36.5303 4.29834C43.4737 1.43278 51.0601 0 59.2894 0C67.6656 0 74.7377 1.45115 80.5056 4.35345C86.2734 7.21901 90.4799 11.2234 93.125 16.3667C95.7702 21.5101 96.5784 27.4983 95.5497 34.3316H72.6804Z" fill="white"/>
</svg>
