<svg width="117" height="62" viewBox="0 0 117 62" fill="none" xmlns="http://www.w3.org/2000/svg">
<g filter="url(#filter0_d_7_4)">
<path d="M42.0261 6.49397C42.0711 5.84839 41.9037 5.3494 41.5258 4.99598C41.1528 4.64257 40.5635 4.46586 39.7569 4.46586C39.2224 4.46586 38.7672 4.53614 38.3883 4.67972C38.0104 4.81626 37.7128 5.01104 37.4955 5.26205C37.2792 5.50703 37.1431 5.79217 37.0873 6.11646C37.0364 6.37349 37.0511 6.6014 37.1284 6.8012C37.2067 7.00201 37.3428 7.17771 37.5376 7.33233C37.7373 7.48594 37.985 7.62048 38.2796 7.73393C38.5802 7.84839 38.916 7.94779 39.2899 8.03414L40.6908 8.3755C41.5033 8.56426 42.2072 8.81526 42.8024 9.12851C43.4025 9.43675 43.889 9.81124 44.262 10.25C44.634 10.6837 44.8904 11.1827 45.0295 11.748C45.1685 12.3122 45.1802 12.9458 45.0627 13.6476C44.8856 14.754 44.4597 15.7038 43.7862 16.497C43.1195 17.2902 42.2453 17.8976 41.1665 18.3193C40.0936 18.741 38.8445 18.9518 37.4211 18.9518C35.9967 18.9518 34.7878 18.7329 33.7912 18.2932C32.8015 17.8484 32.0839 17.1787 31.6385 16.2821C31.194 15.3865 31.0746 14.257 31.2802 12.8936H35.2263C35.1646 13.4588 35.2341 13.9297 35.4348 14.3062C35.6404 14.6827 35.9576 14.9679 36.3864 15.1616C36.8142 15.3554 37.332 15.4528 37.938 15.4528C38.494 15.4528 38.9806 15.3755 39.3976 15.2219C39.8205 15.0673 40.1573 14.8534 40.4079 14.5793C40.6549 14.323 40.8181 13.9942 40.8748 13.6386C40.9306 13.3133 40.8778 13.0311 40.7162 12.7912C40.5596 12.5522 40.2933 12.3434 39.9155 12.1667C39.5435 11.99 39.054 11.8303 38.447 11.6877L36.7368 11.26C35.3232 10.9056 34.2532 10.3414 33.5239 9.56526C32.8015 8.78915 32.545 7.73795 32.7564 6.40763C32.9219 5.34585 33.3793 4.35454 34.0751 3.5502C34.7809 2.73393 35.6737 2.1014 36.7535 1.6506C37.8381 1.19377 39.0305 0.965862 40.3325 0.965862C41.656 0.965862 42.7681 1.19679 43.6697 1.65863C44.5762 2.11546 45.2301 2.76004 45.6305 3.59237C46.0368 4.41968 46.1533 5.38654 45.981 6.49397H42.0261ZM46.3315 18.7299L48.4675 5.58735H52.5468L50.4107 18.7299H46.3315ZM50.7954 4.04618C50.2169 4.04618 49.746 3.8494 49.3858 3.45582C49.0235 3.06225 48.8816 2.59237 48.9589 2.04418C49.0373 1.49096 49.3094 1.02008 49.7773 0.631525C50.2139 0.254881 50.7663 0.0486239 51.3368 0.0491955C51.9153 0.0491955 52.3803 0.243975 52.7308 0.631525C53.0862 1.02008 53.2252 1.49096 53.1478 2.04418C53.0813 2.59136 52.814 3.06225 52.3471 3.45582C51.885 3.8494 51.3691 4.04618 50.7954 4.04618ZM57.6715 18.9187C56.7259 18.9187 55.9055 18.6677 55.2105 18.1657C54.5154 17.6637 54.0171 16.9106 53.7166 15.9066C53.4229 14.9026 53.3936 13.6556 53.6334 12.1667C53.884 10.6205 54.3284 9.34839 54.9687 8.3504C55.6079 7.35241 56.3539 6.61345 57.2046 6.13454C58.0612 5.65462 58.9344 5.41566 59.8242 5.41566C60.4977 5.41566 61.0538 5.53514 61.4933 5.7751C61.9378 6.00904 62.2863 6.31124 62.5359 6.68173C62.7865 7.05321 62.9588 7.43775 63.0528 7.83634H63.1448L64.2216 1.20482H68.3009L65.4639 18.7299H61.4268L61.7684 16.5994H61.6431C61.3908 17.0207 61.082 17.4037 60.7258 17.7369C60.3369 18.1016 59.8873 18.3916 59.3984 18.5934C58.8923 18.8092 58.3167 18.9187 57.6715 18.9187ZM59.6001 15.6576C60.0803 15.6623 60.55 15.5128 60.9432 15.2299C61.3445 14.9388 61.6803 14.5311 61.9525 14.007C62.2315 13.4819 62.4253 12.8655 62.5369 12.1586C62.6544 11.4398 62.6593 10.8203 62.5535 10.3012C62.4478 9.78213 62.2393 9.38253 61.927 9.10341C61.6216 8.8243 61.2183 8.68373 60.718 8.68373C60.2178 8.68373 59.7694 8.8263 59.3749 9.11144C58.9794 9.39759 58.6515 9.79919 58.3901 10.3183C58.1287 10.8373 57.9398 11.4508 57.8223 12.1576C57.7117 12.8655 57.7009 13.4819 57.79 14.006C57.884 14.5311 58.0817 14.9398 58.3822 15.2309C58.6877 15.5151 59.0939 15.6576 59.6001 15.6576ZM74.017 18.9779C72.6768 18.9779 71.5647 18.7068 70.6797 18.1647C69.814 17.6335 69.1583 16.8067 68.8276 15.8293C68.4722 14.8133 68.4076 13.6074 68.6357 12.2098C68.8579 10.8514 69.3112 9.66566 69.9964 8.6496C70.6615 7.65056 71.5548 6.83362 72.5985 6.27008C73.645 5.7008 74.8099 5.41566 76.0943 5.41566C77.0067 5.41566 77.8162 5.56124 78.522 5.8514C79.2048 6.12479 79.808 6.57272 80.2744 7.15261C80.7364 7.72289 81.0507 8.4247 81.2171 9.25703C81.3835 10.0904 81.3786 11.0462 81.2004 12.1245L81.0419 13.1687H69.9113L70.2872 10.738H77.6293C77.6958 10.2932 77.6586 9.89658 77.5206 9.54819C77.3885 9.20843 77.1512 8.92266 76.8451 8.73494C76.5387 8.53614 76.1628 8.43574 75.7184 8.43574C75.268 8.43574 74.8451 8.54418 74.4496 8.76104C74.061 8.97189 73.7301 9.25703 73.457 9.61646C73.1865 9.97151 73.0035 10.3883 72.9235 10.8313L72.481 13.3213C72.3929 13.8755 72.4174 14.3484 72.5564 14.742C72.684 15.1217 72.9381 15.4431 73.2739 15.6496C73.6126 15.8544 74.0493 15.9578 74.5838 15.9578C74.9401 15.9578 75.2729 15.9086 75.5852 15.8122C75.8877 15.714 76.1703 15.5602 76.4193 15.3584C76.6684 15.1544 76.8754 14.9015 77.0282 14.6145L80.7491 14.7249C80.4569 15.5737 79.9806 16.3434 79.3561 16.9759C78.7276 17.6084 77.9601 18.1024 77.0536 18.4558C76.153 18.8042 75.1408 18.9779 74.017 18.9779ZM8.87707 47.8464H4.43854L13.0415 30.3223H18.5392L21.4682 47.8464H17.0297L15.1521 34.7369H15.019L8.87707 47.8464ZM9.41157 40.9488H18.689L18.1545 44.1667H8.87707L9.41157 40.9488ZM28.6302 40.3504L27.4114 47.8464H23.3322L25.4682 34.7038H29.3478L28.964 37.1165H29.106C29.4942 36.3249 30.1 35.6673 30.8485 35.2249C31.6121 34.7631 32.4677 34.5321 33.4192 34.5321C34.3149 34.5321 35.0628 34.7369 35.6629 35.1476C36.264 35.5592 36.6898 36.1345 36.9395 36.8765C37.1901 37.6125 37.2322 38.4769 37.0648 39.4689L35.6962 47.8464H31.617L32.8436 40.2902C32.9659 39.5663 32.8798 38.999 32.5841 38.5873C32.2954 38.1717 31.8225 37.9628 31.1666 37.9628C30.7609 37.958 30.3604 38.0563 30.0007 38.249C29.6411 38.4417 29.3337 38.7229 29.106 39.0673C28.871 39.4207 28.7134 39.8484 28.6302 40.3504ZM39.4495 52.7761C38.96 52.7761 38.5038 52.7359 38.0809 52.6556C37.7154 52.5965 37.3572 52.4965 37.0129 52.3574L38.4147 49.3193C38.7867 49.4558 39.1294 49.5331 39.4407 49.5502C39.7578 49.5733 40.0417 49.5191 40.2923 49.3876C40.5469 49.262 40.7701 49.0361 40.959 48.7118L41.193 48.3102L38.8484 34.7038H42.9698L43.8038 44.0914H43.9379L47.8586 34.7038H52.3059L45.1557 49.1054C44.8095 49.8018 44.3685 50.4441 43.8459 51.0131C43.3245 51.5732 42.6933 52.0136 41.9938 52.3052C41.2762 52.6195 40.4274 52.7771 39.4485 52.7771L39.4495 52.7761ZM61.1037 34.7038L60.5947 37.7841H52.5105L53.0196 34.7038H61.1037ZM55.2134 31.5552H59.2936L57.324 43.7139C57.2849 43.9709 57.2907 44.1797 57.3407 44.3394C57.3965 44.493 57.4973 44.6044 57.6412 44.6727C57.7919 44.7359 57.975 44.7671 58.1923 44.7671C58.3421 44.7671 58.5095 44.75 58.6926 44.7159L59.1096 44.6386L59.2437 47.6586C59.0264 47.7219 58.7347 47.7932 58.3676 47.8735C57.9502 47.9661 57.5256 48.0202 57.0989 48.0351C56.1199 48.0753 55.3113 47.9588 54.6711 47.6847C54.0367 47.4056 53.5893 46.9719 53.328 46.3845C53.0725 45.7962 53.0225 45.0602 53.1782 44.1757L55.2134 31.5552ZM66.6475 40.3514L65.4306 47.8464H61.3514L64.1874 30.3223H68.1345L67.0498 37.1165H67.1918C67.5805 36.331 68.1756 35.6727 68.9098 35.2159C69.644 34.76 70.4957 34.5321 71.4629 34.5321C72.3537 34.5321 73.0977 34.7369 73.6988 35.1476C74.2999 35.5532 74.7257 36.1265 74.9753 36.8675C75.2259 37.6094 75.271 38.4769 75.1095 39.4689L73.7399 47.8464H69.6597L70.8951 40.2902C71.0057 39.5602 70.9147 38.99 70.62 38.5793C70.3244 38.1677 69.8516 37.9628 69.2006 37.9628C68.7728 37.9628 68.3782 38.0602 68.016 38.254C67.6572 38.4449 67.3504 38.7244 67.1232 39.0673C66.8844 39.4207 66.7258 39.8484 66.6484 40.3504L66.6475 40.3514ZM76.2617 47.8464L78.3977 34.7038H82.477L80.3419 47.8464H76.2617ZM80.7257 33.1627C80.1471 33.1627 79.6772 32.9659 79.316 32.5723C78.9538 32.1787 78.8118 31.7088 78.8901 31.1606C78.9684 30.6064 79.2406 30.1365 79.7076 29.748C80.1444 29.3712 80.6972 29.1649 81.268 29.1657C81.8456 29.1657 82.3106 29.3604 82.661 29.748C83.0174 30.1365 83.1564 30.6064 83.0781 31.1606C83.0115 31.7078 82.7452 32.1787 82.2773 32.5723C81.8152 32.9659 81.2983 33.1627 80.7257 33.1627ZM88.2616 40.3514L87.0428 47.8464H82.9635L85.0996 34.7038H88.9791L88.5954 37.1165H88.7373C89.1256 36.3249 89.7313 35.6673 90.4799 35.2249C91.2434 34.7631 92.099 34.5321 93.0506 34.5321C93.9463 34.5321 94.6942 34.7369 95.2943 35.1476C95.8954 35.5592 96.3212 36.1345 96.5708 36.8765C96.8214 37.6125 96.8635 38.4769 96.6961 39.4689L95.3276 47.8464H91.2493L92.4759 40.2902C92.5983 39.5663 92.5121 38.999 92.2175 38.5873C91.9277 38.1717 91.4549 37.9628 90.798 37.9628C90.3923 37.9579 89.9917 38.0562 89.6321 38.2489C89.2724 38.4416 88.965 38.7228 88.7373 39.0673C88.5043 39.4207 88.3458 39.8484 88.2625 40.3504L88.2616 40.3514ZM103.002 53.0492C101.778 53.0492 100.76 52.8745 99.9482 52.5271C99.1357 52.1787 98.5297 51.7028 98.1293 51.0984C97.7288 50.4941 97.5271 49.7743 97.5537 49.0442L101.459 48.8223C101.492 49.0954 101.589 49.3323 101.75 49.5321C101.912 49.7319 102.142 49.8835 102.443 49.9859C102.743 50.0944 103.116 50.1486 103.56 50.1486C104.245 50.1486 104.84 49.9779 105.346 49.6345C105.852 49.2932 106.164 48.7018 106.281 47.8635L106.656 45.5532H106.514C106.282 45.9695 105.977 46.3379 105.613 46.6396C105.213 46.9713 104.758 47.2264 104.27 47.3926C103.716 47.5811 103.135 47.6738 102.551 47.6667C101.611 47.6667 100.791 47.4438 100.09 46.999C99.3892 46.5482 98.8831 45.8524 98.5718 44.9106C98.2595 43.9639 98.2243 42.746 98.4631 41.257C98.7137 39.7229 99.1582 38.4598 99.7984 37.4669C100.438 36.4689 101.183 35.7299 102.034 35.251C102.891 34.7711 103.767 34.5321 104.662 34.5321C105.335 34.5321 105.891 34.6516 106.331 34.8916C106.77 35.1255 107.115 35.4277 107.366 35.7982C107.615 36.1697 107.793 36.5542 107.899 36.9528H108.016L108.375 34.7038H112.439L110.302 47.8976C110.13 49.0161 109.71 49.9568 109.043 50.7219C108.375 51.4859 107.521 52.0653 106.481 52.4588C105.441 52.8524 104.281 53.0492 103.002 53.0492ZM104.437 44.6205C104.932 44.6205 105.379 44.4859 105.78 44.2189C106.18 43.9498 106.517 43.5653 106.79 43.0633C107.062 42.5612 107.254 41.9588 107.366 41.258C107.476 40.5452 107.476 39.9307 107.366 39.4177C107.26 38.8986 107.054 38.499 106.748 38.2199C106.443 37.9398 106.039 37.8002 105.538 37.8002C105.032 37.8002 104.582 37.9428 104.187 38.2279C103.797 38.5141 103.469 38.9157 103.202 39.4347C102.941 39.9478 102.757 40.5562 102.651 41.258C102.54 41.9588 102.532 42.5612 102.627 43.0633C102.726 43.5653 102.927 43.9498 103.227 44.2179C103.533 44.4859 103.936 44.6205 104.437 44.6205Z" fill="#524FE1"/>
</g>
<defs>
<filter id="filter0_d_7_4" x="0.438538" y="0.0491943" width="116" height="61" filterUnits="userSpaceOnUse" color-interpolation-filters="sRGB">
<feFlood flood-opacity="0" result="BackgroundImageFix"/>
<feColorMatrix in="SourceAlpha" type="matrix" values="0 0 0 0 0 0 0 0 0 0 0 0 0 0 0 0 0 0 127 0" result="hardAlpha"/>
<feOffset dy="4"/>
<feGaussianBlur stdDeviation="2"/>
<feComposite in2="hardAlpha" operator="out"/>
<feColorMatrix type="matrix" values="0 0 0 0 0 0 0 0 0 0 0 0 0 0 0 0 0 0 0.25 0"/>
<feBlend mode="normal" in2="BackgroundImageFix" result="effect1_dropShadow_7_4"/>
<feBlend mode="normal" in="SourceGraphic" in2="effect1_dropShadow_7_4" result="shape"/>
</filter>
</defs>
</svg>
