<svg width="112" height="54" viewBox="0 0 112 54" fill="none" xmlns="http://www.w3.org/2000/svg">
<rect width="112" height="54" fill="#F5F5F5"/>
<path d="M39.348 6.8125C39.3935 6.17045 39.223 5.6733 38.8366 5.32102C38.456 4.96875 37.8537 4.79261 37.0298 4.79261C36.4844 4.79261 36.0185 4.86364 35.6321 5.00568C35.2457 5.14205 34.9418 5.33523 34.7202 5.58523C34.4986 5.82955 34.3594 6.11364 34.3026 6.4375C34.2514 6.69318 34.2656 6.92045 34.3452 7.11932C34.4247 7.31818 34.5639 7.49432 34.7628 7.64773C34.9673 7.80114 35.2202 7.93466 35.5213 8.0483C35.8281 8.16193 36.1719 8.26136 36.5526 8.34659L37.9844 8.6875C38.8139 8.875 39.5327 9.125 40.1406 9.4375C40.7543 9.74432 41.2514 10.1165 41.6321 10.554C42.0128 10.9858 42.2741 11.483 42.4162 12.0455C42.5582 12.608 42.5696 13.2386 42.4503 13.9375C42.2685 15.0398 41.8338 15.9858 41.1463 16.7756C40.4645 17.5653 39.5724 18.1705 38.4702 18.5909C37.3736 19.0114 36.098 19.2216 34.6435 19.2216C33.1889 19.2216 31.9531 19.0028 30.9361 18.5653C29.9247 18.1222 29.1918 17.4545 28.7372 16.5625C28.2827 15.6705 28.1605 14.5455 28.3707 13.1875H32.402C32.3395 13.75 32.4105 14.2188 32.6151 14.5938C32.8253 14.9688 33.1491 15.2528 33.5866 15.446C34.0241 15.6392 34.5526 15.7358 35.1719 15.7358C35.7401 15.7358 36.2372 15.6591 36.6634 15.5057C37.0952 15.3523 37.4389 15.1392 37.6946 14.8665C37.956 14.5937 38.1151 14.2812 38.1719 13.929C38.2287 13.6051 38.1747 13.3239 38.0099 13.0852C37.8509 12.8466 37.5781 12.6392 37.1918 12.4631C36.8111 12.2869 36.3111 12.1278 35.6918 11.9858L33.9446 11.5597C32.5014 11.2074 31.4077 10.6449 30.6634 9.87216C29.9247 9.09943 29.6634 8.05114 29.8793 6.72727C30.0611 5.64205 30.5099 4.69318 31.2259 3.88068C31.9474 3.06818 32.8594 2.4375 33.9616 1.98864C35.0696 1.53409 36.2884 1.30682 37.6179 1.30682C38.9702 1.30682 40.1065 1.53693 41.027 1.99716C41.9531 2.4517 42.6207 3.09375 43.0298 3.92329C43.4446 4.74716 43.5639 5.71023 43.3878 6.8125H39.348ZM43.7457 19L45.9276 5.90909H50.0952L47.9134 19H43.7457ZM48.3054 4.375C47.7145 4.375 47.2344 4.17898 46.8651 3.78693C46.4957 3.39489 46.3509 2.92614 46.4304 2.38068C46.5099 1.82955 46.7884 1.3608 47.2656 0.974431C47.7429 0.588068 48.2741 0.394886 48.8594 0.394886C49.4503 0.394886 49.9247 0.588068 50.2827 0.974431C50.6463 1.3608 50.7884 1.82955 50.7088 2.38068C50.6406 2.92614 50.3679 3.39489 49.8906 3.78693C49.419 4.17898 48.8906 4.375 48.3054 4.375ZM55.3303 19.1875C54.3643 19.1875 53.5263 18.9375 52.8161 18.4375C52.1058 17.9375 51.5973 17.1875 51.2905 16.1875C50.9893 15.1875 50.9609 13.946 51.2053 12.4631C51.4609 10.9233 51.9155 9.65625 52.5689 8.66193C53.2223 7.66761 53.9837 6.93182 54.853 6.45454C55.728 5.97727 56.62 5.73864 57.5291 5.73864C58.2166 5.73864 58.7848 5.85795 59.2337 6.09659C59.6882 6.32955 60.0433 6.63068 60.299 7C60.5547 7.36932 60.7308 7.75284 60.8274 8.15057H60.9212L62.0206 1.54545H66.1882L63.2905 19H59.1655L59.5149 16.8778H59.3871C59.1428 17.2812 58.8303 17.6591 58.4496 18.0114C58.0689 18.3636 57.6172 18.6477 57.0945 18.8636C56.5774 19.0795 55.9893 19.1875 55.3303 19.1875ZM57.299 15.9403C57.8047 15.9403 58.2621 15.7983 58.6712 15.5142C59.0803 15.2244 59.424 14.8182 59.7024 14.2955C59.9865 13.7727 60.1854 13.1591 60.299 12.4545C60.4183 11.7386 60.424 11.1222 60.3161 10.6051C60.2081 10.0881 59.995 9.69034 59.6768 9.41193C59.3643 9.13352 58.9524 8.99432 58.4411 8.99432C57.9297 8.99432 57.4723 9.13636 57.0689 9.42045C56.6655 9.70455 56.3303 10.1051 56.0632 10.6222C55.7962 11.1392 55.603 11.75 55.4837 12.4545C55.37 13.1591 55.3587 13.7727 55.4496 14.2955C55.5462 14.8182 55.7479 15.2244 56.0547 15.5142C56.3672 15.7983 56.782 15.9403 57.299 15.9403ZM72.0263 19.2472C70.657 19.2472 69.5206 18.9773 68.6172 18.4375C67.7195 17.892 67.0888 17.1165 66.7251 16.1108C66.3615 15.0994 66.2962 13.8977 66.5291 12.5057C66.7564 11.1534 67.2195 9.97159 67.9183 8.96023C68.6229 7.94318 69.5092 7.15341 70.5774 6.59091C71.6456 6.02273 72.8359 5.73864 74.1484 5.73864C75.0803 5.73864 75.907 5.88352 76.6286 6.17329C77.3501 6.46307 77.9467 6.89489 78.4183 7.46875C78.8899 8.03693 79.2109 8.7358 79.3814 9.56534C79.5518 10.3949 79.5462 11.3466 79.3643 12.4205L79.2024 13.4602H67.8331L68.2166 11.0398H75.7166C75.7848 10.5966 75.7479 10.2017 75.6058 9.85511C75.4638 9.50852 75.2337 9.23864 74.9155 9.04545C74.603 8.84659 74.2195 8.74716 73.7649 8.74716C73.3047 8.74716 72.8729 8.85511 72.4695 9.07102C72.0717 9.28125 71.7337 9.56534 71.4553 9.9233C71.1768 10.2812 70.995 10.6847 70.9098 11.1335L70.4581 13.6136C70.3672 14.1648 70.3928 14.6364 70.5348 15.0284C70.6768 15.4205 70.9212 15.7216 71.2678 15.9318C71.6143 16.1364 72.0604 16.2386 72.6058 16.2386C72.9695 16.2386 73.3104 16.1903 73.6286 16.0938C73.9467 15.9915 74.2308 15.8409 74.4808 15.642C74.7365 15.4375 74.9439 15.1903 75.103 14.9006L78.9041 15.0114C78.5973 15.8693 78.1229 16.6165 77.4808 17.2528C76.8388 17.8835 76.0547 18.375 75.1286 18.7273C74.2081 19.0739 73.174 19.2472 72.0263 19.2472ZM5.48615 48H0.95206L9.73899 30.5455H15.3555L18.3469 48H13.8129L11.8952 34.9432H11.7589L5.48615 48ZM6.03161 41.1307H15.5089L14.9634 44.3352H5.48615L6.03161 41.1307ZM25.6637 40.5341L24.4194 48H20.2518L22.4336 34.9091H26.3967L26.0046 37.3125H26.1495C26.5586 36.5114 27.1523 35.8835 27.9308 35.429C28.7092 34.9688 29.5842 34.7386 30.5558 34.7386C31.4705 34.7386 32.2347 34.9432 32.8484 35.3523C33.462 35.7614 33.8967 36.3352 34.1523 37.0739C34.408 37.8068 34.4506 38.6676 34.2802 39.6562L32.8825 48H28.7148L29.9677 40.4744C30.0927 39.7528 30.0046 39.1875 29.7035 38.7784C29.408 38.3636 28.9251 38.1562 28.2546 38.1562C27.8171 38.1562 27.4165 38.2528 27.0529 38.446C26.695 38.6335 26.3938 38.9034 26.1495 39.2557C25.9109 39.608 25.7489 40.0341 25.6637 40.5341ZM36.7156 52.9091C36.2156 52.9091 35.7496 52.8693 35.3178 52.7898C34.8917 52.7159 34.5281 52.6165 34.2269 52.4915L35.6587 49.4659C36.0394 49.6023 36.3888 49.679 36.707 49.696C37.0309 49.7188 37.3207 49.6648 37.5763 49.5341C37.8377 49.4091 38.065 49.1847 38.2582 48.8608L38.4968 48.4602L36.1019 34.9091H40.3121L41.1644 44.2585H41.3008L45.3065 34.9091H49.8491L42.5451 49.2528C42.1758 49.9688 41.7298 50.6023 41.207 51.1534C40.6843 51.7045 40.0536 52.1335 39.315 52.4403C38.582 52.7528 37.7156 52.9091 36.7156 52.9091ZM58.8363 34.9091L58.3164 37.9773H50.0579L50.5778 34.9091H58.8363ZM52.8192 31.7727H56.9869L54.9755 43.8835C54.9357 44.1392 54.9414 44.3466 54.9925 44.5057C55.0494 44.6591 55.1516 44.7699 55.2994 44.8381C55.4528 44.9006 55.6403 44.9318 55.8619 44.9318C56.0153 44.9318 56.1857 44.9148 56.3732 44.8807C56.5607 44.8466 56.7028 44.821 56.7994 44.804L56.9357 47.8125C56.7141 47.875 56.4158 47.946 56.0408 48.0256C55.6715 48.1108 55.2397 48.1648 54.7454 48.1875C53.7454 48.2273 52.9187 48.1108 52.2653 47.8381C51.6175 47.5597 51.1602 47.1278 50.8931 46.5426C50.6317 45.9574 50.5806 45.2244 50.7397 44.3438L52.8192 31.7727ZM64.4996 40.5341L63.2553 48H59.0877L61.9854 30.5455H66.0167L64.9087 37.3125H65.0536C65.4741 36.5057 66.0593 35.875 66.8093 35.4205C67.5593 34.9659 68.4286 34.7386 69.4173 34.7386C70.3263 34.7386 71.0877 34.9432 71.7014 35.3523C72.315 35.7557 72.7496 36.3267 73.0053 37.0653C73.261 37.804 73.3065 38.6676 73.1417 39.6562L71.744 48H67.5763L68.8377 40.4744C68.9513 39.7472 68.8576 39.179 68.5565 38.7699C68.2553 38.3608 67.7724 38.1562 67.1076 38.1562C66.6701 38.1562 66.2667 38.2528 65.8974 38.446C65.5337 38.6335 65.2298 38.9034 64.9854 39.2557C64.7411 39.608 64.5792 40.0341 64.4996 40.5341ZM74.32 48L76.5018 34.9091H80.6694L78.4876 48H74.32ZM78.8796 33.375C78.2887 33.375 77.8086 33.179 77.4393 32.7869C77.07 32.3949 76.9251 31.9261 77.0046 31.3807C77.0842 30.8295 77.3626 30.3608 77.8398 29.9744C78.3171 29.5881 78.8484 29.3949 79.4336 29.3949C80.0245 29.3949 80.4989 29.5881 80.8569 29.9744C81.2205 30.3608 81.3626 30.8295 81.283 31.3807C81.2148 31.9261 80.9421 32.3949 80.4648 32.7869C79.9933 33.179 79.4648 33.375 78.8796 33.375ZM86.5778 40.5341L85.3335 48H81.1658L83.3477 34.9091H87.3107L86.9187 37.3125H87.0636C87.4727 36.5114 88.0664 35.8835 88.8448 35.429C89.6232 34.9688 90.4982 34.7386 91.4698 34.7386C92.3846 34.7386 93.1488 34.9432 93.7624 35.3523C94.3761 35.7614 94.8107 36.3352 95.0664 37.0739C95.3221 37.8068 95.3647 38.6676 95.1942 39.6562L93.7965 48H89.6289L90.8817 40.4744C91.0067 39.7528 90.9187 39.1875 90.6175 38.7784C90.3221 38.3636 89.8391 38.1562 89.1687 38.1562C88.7312 38.1562 88.3306 38.2528 87.967 38.446C87.609 38.6335 87.3079 38.9034 87.0636 39.2557C86.8249 39.608 86.663 40.0341 86.5778 40.5341ZM101.635 53.1818C100.385 53.1818 99.3455 53.0085 98.516 52.6619C97.6864 52.3153 97.0671 51.8409 96.658 51.2386C96.2489 50.6364 96.0529 49.9545 96.07 49.1932L100.059 48.9716C100.093 49.2443 100.192 49.4801 100.357 49.679C100.522 49.8778 100.757 50.0284 101.064 50.1307C101.371 50.2386 101.752 50.2926 102.206 50.2926C102.905 50.2926 103.513 50.1222 104.03 49.7812C104.547 49.4403 104.865 48.8523 104.985 48.017L105.368 45.7159H105.223C104.996 46.1193 104.689 46.4801 104.303 46.7983C103.917 47.1165 103.459 47.3665 102.931 47.5483C102.402 47.7301 101.817 47.821 101.175 47.821C100.215 47.821 99.3768 47.5994 98.6609 47.1562C97.945 46.7074 97.4279 46.0142 97.1097 45.0767C96.7915 44.1335 96.7546 42.9205 96.9989 41.4375C97.2546 39.9091 97.7092 38.6506 98.3626 37.6619C99.016 36.6676 99.7773 35.9318 100.647 35.4545C101.522 34.9773 102.417 34.7386 103.331 34.7386C104.019 34.7386 104.587 34.858 105.036 35.0966C105.485 35.3295 105.837 35.6307 106.093 36C106.348 36.3693 106.53 36.7528 106.638 37.1506H106.757L107.124 34.9091H111.275L109.093 48.0511C108.917 49.1648 108.488 50.1023 107.806 50.8636C107.124 51.625 106.252 52.2017 105.189 52.5938C104.127 52.9858 102.942 53.1818 101.635 53.1818ZM103.101 44.7869C103.607 44.7869 104.064 44.6534 104.473 44.3864C104.882 44.1193 105.226 43.7358 105.505 43.2358C105.783 42.7358 105.979 42.1364 106.093 41.4375C106.206 40.7273 106.206 40.1165 106.093 39.6051C105.985 39.0881 105.775 38.6903 105.462 38.4119C105.15 38.1335 104.738 37.9943 104.226 37.9943C103.709 37.9943 103.249 38.1364 102.846 38.4205C102.448 38.7045 102.113 39.1051 101.84 39.6222C101.573 40.1335 101.385 40.7386 101.277 41.4375C101.164 42.1364 101.155 42.7358 101.252 43.2358C101.354 43.7358 101.559 44.1193 101.865 44.3864C102.178 44.6534 102.59 44.7869 103.101 44.7869Z" fill="#524FE1"/>
</svg>
